<?xml version="1.0" encoding="UTF-8" standalone="no"?>
<!DOCTYPE svg PUBLIC "-//W3C//DTD SVG 1.1//EN" "http://www.w3.org/Graphics/SVG/1.1/DTD/svg11.dtd">
<svg width="100%" height="100%" viewBox="0 0 350 350" version="1.1" xmlns="http://www.w3.org/2000/svg" xmlns:xlink="http://www.w3.org/1999/xlink" xml:space="preserve" xmlns:serif="http://www.serif.com/" style="fill-rule:evenodd;clip-rule:evenodd;stroke-linejoin:round;stroke-miterlimit:1.41421;">
    <path d="M273.497,312.18C267.345,316.597 260.859,320.407 254.363,323.556C210.194,344.969 156.542,346.577 110.484,329.816C80.935,319.063 52.943,299.763 42.125,269.925C39.511,262.714 38.123,255.064 38.068,247.396C37.948,195.773 37.919,144.149 38.067,92.525L38.065,92.286L38.068,92.273L38.069,91.989C38.251,70.97 53.949,52.164 70.839,40.896C100.35,21.208 137.357,14.014 173.279,13.702C174.14,13.697 175,13.696 175.861,13.697C214.4,13.898 253.888,21.438 284.52,44.709C299.223,55.88 311.633,71.571 311.927,91.691C312.008,92.527 311.991,93.373 311.937,94.221C312.073,145.174 311.933,196.128 311.932,247.082C311.932,254.769 310.58,262.062 308.168,268.914L310.59,271.336C310.59,271.336 313.136,274.448 312.913,277.564C312.777,279.461 311.9,281.242 310.59,282.65L282.605,310.634C280.151,312.92 276.451,313.54 273.497,312.18ZM295.127,255.873C295.648,253.012 295.929,250.078 295.936,247.082C296.03,208.113 296.241,168.529 296.137,129.033C291.042,134.696 285.155,139.637 279.164,143.633C249.694,163.293 212.859,170.577 176.722,170.828C135.286,171.116 91.958,163.344 60.286,135.586C58.089,133.661 55.976,131.612 53.986,129.445C53.934,168.737 53.972,208.029 54.064,247.321C54.223,269.548 70.812,289.535 88.785,301.34C121.622,322.907 163.829,328.758 203.26,322.618C223.903,319.403 244.387,312.896 261.782,301.125L220.966,260.308L200.637,280.637C200.637,280.637 195.97,284.049 191.919,282.371C189.381,281.32 187.471,278.876 187.067,276.154C186.99,275.636 187,275.503 186.98,274.98L186.98,195.025C187.119,191.14 190.021,187.655 193.842,187.106C194.345,187.034 194.473,187.043 194.98,187.025L274.936,187.025C275.132,187.032 275.328,187.039 275.525,187.046C277.436,187.258 277.94,187.532 278.879,188.064C282.784,190.276 284.109,196.086 281.362,199.79C281.05,200.211 280.949,200.298 280.593,200.681L260.264,221.01L295.127,255.873ZM255.622,203.025L202.98,203.025L202.98,255.667L215.309,243.338C218.154,240.689 222.67,240.277 225.76,242.59C226.167,242.895 226.252,242.992 226.623,243.338L276.949,293.664L293.619,276.993L243.294,226.667C242.098,225.383 242.007,225.064 241.673,224.334C240.329,221.391 241.057,217.755 243.294,215.353L255.622,203.025ZM295.937,92.223L295.934,91.9C295.706,76.157 283,62.839 270.96,54.658C243.254,35.833 207.743,29.635 174.194,29.694C140.904,29.867 106.964,35.685 79.04,54.658C77.294,55.844 75.587,57.088 73.93,58.396C63.333,66.76 54.187,77.989 54.064,92.081L54.064,92.416C54.068,92.598 54.072,92.789 54.076,92.989C54.482,108.547 67.003,121.685 79.042,129.866C107.126,148.948 142.905,155.178 177.414,154.819C210.596,154.473 244.651,148.31 272.068,129.101C284.064,120.696 295,109.273 295.881,94.074C295.917,93.463 295.932,92.852 295.934,92.24L295.937,92.223Z" style="fill-rule:nonzero;"/>
</svg>
