<?xml version="1.0" encoding="UTF-8" standalone="no"?>
<!DOCTYPE svg PUBLIC "-//W3C//DTD SVG 1.1//EN" "http://www.w3.org/Graphics/SVG/1.1/DTD/svg11.dtd">
<svg width="100%" height="100%" viewBox="0 0 1600 800" version="1.1" xmlns="http://www.w3.org/2000/svg" xmlns:xlink="http://www.w3.org/1999/xlink" xml:space="preserve" xmlns:serif="http://www.serif.com/" style="fill-rule:evenodd;clip-rule:evenodd;stroke-linejoin:round;stroke-miterlimit:1.41421;">
    <g transform="matrix(1,0,0,1,79.883,547.07)">
        <path d="M208.828,-91.641L79.453,-91.641L52.969,-19.688L90.703,-19.688C95.391,-19.688 98.75,-18.789 100.781,-16.992C102.813,-15.195 103.828,-12.813 103.828,-9.844C103.828,-7.031 102.813,-4.688 100.781,-2.813C98.75,-0.938 95.391,0 90.703,0L17.109,0C12.422,0 9.063,-0.938 7.031,-2.813C5,-4.688 3.984,-7.031 3.984,-9.844C3.984,-12.813 5,-15.195 7.031,-16.992C9.063,-18.789 12.422,-19.688 17.109,-19.688L32.344,-19.688L119.297,-254.531L61.172,-254.531C56.484,-254.531 53.125,-255.43 51.094,-257.227C49.063,-259.023 48.047,-261.406 48.047,-264.375C48.047,-267.344 49.063,-269.727 51.094,-271.523C53.125,-273.32 56.484,-274.219 61.172,-274.219L160.313,-274.219L256.406,-19.688L271.641,-19.688C276.328,-19.688 279.688,-18.789 281.719,-16.992C283.75,-15.195 284.766,-12.813 284.766,-9.844C284.766,-7.031 283.75,-4.688 281.719,-2.813C279.688,-0.938 276.328,0 271.641,0L198.281,0C193.438,0 190,-0.938 187.969,-2.813C185.938,-4.688 184.922,-7.031 184.922,-9.844C184.922,-12.813 185.938,-15.195 187.969,-16.992C190,-18.789 193.438,-19.688 198.281,-19.688L235.781,-19.688L208.828,-91.641ZM201.328,-111.328L146.953,-254.531L139.688,-254.531L86.953,-111.328L201.328,-111.328Z" style="fill-rule:nonzero;"/>
        <path d="M499.453,0L499.453,-28.828C472.578,-4.453 443.516,7.734 412.266,7.734C393.047,7.734 378.438,2.5 368.438,-7.969C355.469,-21.719 348.984,-37.734 348.984,-56.016L348.984,-183.047L322.5,-183.047C317.813,-183.047 314.453,-183.984 312.422,-185.859C310.391,-187.734 309.375,-190.156 309.375,-193.125C309.375,-195.938 310.391,-198.281 312.422,-200.156C314.453,-202.031 317.813,-202.969 322.5,-202.969L368.672,-202.969L368.672,-56.016C368.672,-43.203 372.734,-32.656 380.859,-24.375C388.984,-16.094 399.141,-11.953 411.328,-11.953C443.359,-11.953 472.734,-26.641 499.453,-56.016L499.453,-183.047L463.125,-183.047C458.438,-183.047 455.078,-183.984 453.047,-185.859C451.016,-187.734 450,-190.156 450,-193.125C450,-195.938 451.016,-198.281 453.047,-200.156C455.078,-202.031 458.438,-202.969 463.125,-202.969L519.141,-202.969L519.141,-19.688L535.781,-19.688C540.469,-19.688 543.828,-18.789 545.859,-16.992C547.891,-15.195 548.906,-12.813 548.906,-9.844C548.906,-7.031 547.891,-4.688 545.859,-2.813C543.828,-0.938 540.469,0 535.781,0L499.453,0Z" style="fill-rule:nonzero;"/>
        <path d="M679.688,-202.969L786.563,-202.969C791.25,-202.969 794.609,-202.031 796.641,-200.156C798.672,-198.281 799.688,-195.859 799.688,-192.891C799.688,-190.078 798.672,-187.734 796.641,-185.859C794.609,-183.984 791.25,-183.047 786.563,-183.047L679.688,-183.047L679.688,-52.031C679.688,-40.625 684.258,-31.094 693.398,-23.438C702.539,-15.781 715.938,-11.953 733.594,-11.953C746.875,-11.953 761.25,-13.945 776.719,-17.93C792.188,-21.914 804.219,-26.406 812.813,-31.406C815.938,-33.438 818.516,-34.453 820.547,-34.453C823.047,-34.453 825.234,-33.477 827.109,-31.523C828.984,-29.57 829.922,-27.266 829.922,-24.609C829.922,-22.266 828.906,-20.078 826.875,-18.047C821.875,-12.891 809.727,-7.305 790.43,-1.289C771.133,4.727 752.656,7.734 735,7.734C712.031,7.734 693.75,2.344 680.156,-8.438C666.563,-19.219 659.766,-33.75 659.766,-52.031L659.766,-183.047L623.438,-183.047C618.75,-183.047 615.391,-183.984 613.359,-185.859C611.328,-187.734 610.313,-190.156 610.313,-193.125C610.313,-195.938 611.328,-198.281 613.359,-200.156C615.391,-202.031 618.75,-202.969 623.438,-202.969L659.766,-202.969L659.766,-261.094C659.766,-265.781 660.703,-269.141 662.578,-271.172C664.453,-273.203 666.797,-274.219 669.609,-274.219C672.578,-274.219 675,-273.203 676.875,-271.172C678.75,-269.141 679.688,-265.781 679.688,-261.094L679.688,-202.969Z" style="fill-rule:nonzero;"/>
        <path d="M943.359,-294.141L943.359,-172.969C955.859,-186.563 967.852,-196.133 979.336,-201.68C990.82,-207.227 1003.67,-210 1017.89,-210C1033.2,-210 1046.21,-207.305 1056.91,-201.914C1067.62,-196.523 1076.56,-188.242 1083.75,-177.07C1090.94,-165.898 1094.53,-154.141 1094.53,-141.797L1094.53,-19.688L1116.56,-19.688C1121.41,-19.688 1124.81,-18.789 1126.76,-16.992C1128.71,-15.195 1129.69,-12.813 1129.69,-9.844C1129.69,-7.031 1128.71,-4.688 1126.76,-2.813C1124.81,-0.938 1121.41,0 1116.56,0L1052.58,0C1047.73,0 1044.3,-0.938 1042.27,-2.813C1040.23,-4.688 1039.22,-7.031 1039.22,-9.844C1039.22,-12.813 1040.23,-15.195 1042.27,-16.992C1044.3,-18.789 1047.73,-19.688 1052.58,-19.688L1074.61,-19.688L1074.61,-140.391C1074.61,-154.609 1069.49,-166.484 1059.26,-176.016C1049.02,-185.547 1034.77,-190.313 1016.48,-190.313C1002.11,-190.313 989.844,-186.797 979.688,-179.766C972.344,-174.766 960.234,-162.969 943.359,-144.375L943.359,-19.688L965.625,-19.688C970.313,-19.688 973.672,-18.789 975.703,-16.992C977.734,-15.195 978.75,-12.813 978.75,-9.844C978.75,-7.031 977.734,-4.688 975.703,-2.813C973.672,-0.938 970.313,0 965.625,0L901.406,0C896.719,0 893.359,-0.938 891.328,-2.813C889.297,-4.688 888.281,-7.031 888.281,-9.844C888.281,-12.813 889.297,-15.195 891.328,-16.992C893.359,-18.789 896.719,-19.688 901.406,-19.688L923.672,-19.688L923.672,-274.219L897.188,-274.219C892.5,-274.219 889.141,-275.156 887.109,-277.031C885.078,-278.906 884.063,-281.328 884.063,-284.297C884.063,-287.109 885.078,-289.453 887.109,-291.328C889.141,-293.203 892.5,-294.141 897.188,-294.141L943.359,-294.141Z" style="fill-rule:nonzero;"/>
        <path d="M1272.66,-202.969L1272.66,-153.281C1298.28,-176.406 1317.46,-191.289 1330.19,-197.93C1342.93,-204.57 1354.69,-207.891 1365.47,-207.891C1377.19,-207.891 1388.09,-203.945 1398.16,-196.055C1408.24,-188.164 1413.28,-182.188 1413.28,-178.125C1413.28,-175.156 1412.31,-172.695 1410.35,-170.742C1408.4,-168.789 1405.94,-167.813 1402.97,-167.813C1401.41,-167.813 1400.08,-168.086 1398.98,-168.633C1397.89,-169.18 1395.86,-170.938 1392.89,-173.906C1387.42,-179.375 1382.66,-183.125 1378.59,-185.156C1374.53,-187.188 1370.55,-188.203 1366.64,-188.203C1358.05,-188.203 1347.69,-184.766 1335.59,-177.891C1323.48,-171.016 1302.5,-154.219 1272.66,-127.5L1272.66,-19.688L1359.84,-19.688C1364.69,-19.688 1368.12,-18.789 1370.16,-16.992C1372.19,-15.195 1373.2,-12.813 1373.2,-9.844C1373.2,-7.031 1372.19,-4.688 1370.16,-2.813C1368.12,-0.938 1364.69,0 1359.84,0L1205.39,0C1200.7,0 1197.34,-0.898 1195.31,-2.695C1193.28,-4.492 1192.27,-6.797 1192.27,-9.609C1192.27,-12.266 1193.24,-14.492 1195.19,-16.289C1197.15,-18.086 1200.55,-18.984 1205.39,-18.984L1252.97,-18.984L1252.97,-183.047L1216.64,-183.047C1211.95,-183.047 1208.59,-183.984 1206.56,-185.859C1204.53,-187.734 1203.52,-190.156 1203.52,-193.125C1203.52,-195.938 1204.49,-198.281 1206.44,-200.156C1208.4,-202.031 1211.8,-202.969 1216.64,-202.969L1272.66,-202.969Z" style="fill-rule:nonzero;"/>
    </g>
</svg>
