<?xml version="1.0" encoding="UTF-8" standalone="no"?>
<!DOCTYPE svg PUBLIC "-//W3C//DTD SVG 1.1//EN" "http://www.w3.org/Graphics/SVG/1.1/DTD/svg11.dtd">
<svg width="100%" height="100%" viewBox="0 0 350 350" version="1.1" xmlns="http://www.w3.org/2000/svg" xmlns:xlink="http://www.w3.org/1999/xlink" xml:space="preserve" xmlns:serif="http://www.serif.com/" style="fill-rule:evenodd;clip-rule:evenodd;stroke-linejoin:round;stroke-miterlimit:1.41421;">
    <path d="M264.178,304.011C252.99,318.817 238.156,330.956 220.248,337.956C180.898,353.336 134.19,348.426 102.844,318.316C85.001,301.177 72.842,278.56 66.178,254.922C65.728,253.329 65.306,251.729 64.946,250.114L64.741,248.358C64.447,210.819 63.627,173.023 64.659,135.616C64.858,128.441 68.59,121 77.197,120.906C77.475,120.909 77.475,120.909 77.751,120.915C85.231,121.214 92.122,125.321 98.808,129.468C98.78,105.085 98.412,80.687 98.944,56.305C99.201,44.504 107.865,33.989 119.759,30.381C127.402,28.064 135.809,27.896 143.31,30.553C143.31,30.553 143.623,14.975 155.372,8.14C162.391,4.055 171.135,3.185 178.507,3.862C189.201,4.844 198.875,12.152 203.114,22.072C203.114,22.072 212.602,19.018 218.564,19.446C224.232,19.853 229.695,22.275 233.898,26.265C239.516,31.601 242.882,39.078 244.248,46.445L244.386,47.944L244.386,64.758C245.594,64.375 245.602,64.402 246.097,64.277C254.466,62.176 263.516,62.716 270.619,67.99C278.181,73.605 282.694,82.689 284.901,91.319L285.162,93.308C285.524,143.412 286.455,193.323 285.324,243.381C285.31,244.021 285.289,244.66 285.262,245.299L310.562,270.606C310.562,270.606 313.266,273.912 313.029,277.223C312.884,279.239 311.952,281.132 310.56,282.627L282.681,310.497C279.654,313.315 274.86,313.748 271.577,311.29C271.145,310.966 271.055,310.863 270.661,310.495L264.178,304.011ZM269.271,186.819C269.233,156.182 269.059,125.557 268.846,94.941C268.846,94.941 266.319,86.989 263.136,83.25C259.314,78.757 251.196,77.967 245.927,81.971C244.999,82.674 244.386,83.988 244.386,83.988C244.854,94.358 244.542,104.901 244.536,115.401C244.524,134.172 244.466,152.941 244.399,171.712L244.386,175.413C244.03,177.613 244.178,178.331 242.813,180.2C239.862,184.236 232.774,184.533 229.614,180.175C228.254,178.301 228.407,177.584 228.058,175.382L228.058,84.418C228.058,84.418 228.03,83.877 228.058,83.14L228.058,48.759C226.523,41.965 222.593,35.171 214.937,35.769C210.335,36.128 205.52,38.946 204.576,44.047L204.572,47.476C205.186,53.805 204.986,60.305 205.029,66.773C205.269,102.508 204.907,138.328 204.583,174.116L204.572,175.457C204.203,177.653 204.349,178.37 202.976,180.23C199.964,184.311 192.848,184.387 189.793,180.167C188.44,178.295 188.591,177.58 188.244,175.382L188.244,48.451C188.244,48.451 187.96,45.794 188.238,43.025L188.244,28.845C186.298,23.752 181.273,20.096 175.219,20.046C174.998,20.046 174.775,20.046 174.554,20.047C168.242,20.121 161.014,21.334 159.86,28.092C159.397,30.808 159.559,33.722 159.508,36.578C159.442,40.379 159.409,44.184 159.382,47.987L159.851,175.352C159.511,177.555 159.666,178.272 158.314,180.149C155.416,184.176 148.293,184.531 145.119,180.23C143.745,178.367 143.89,177.648 143.524,175.45C143.175,133.715 142.814,91.793 143.043,49.863C142.41,48.916 141.615,48.105 140.709,47.443C136.961,44.7 131.751,44.607 127.188,45.38C121.606,46.326 115.444,49.709 115.277,56.298C114.594,83.044 115.109,110.209 115.146,137.239L115.158,144.12L115.32,145.178L115.32,214.19C114.971,216.393 115.124,217.109 113.763,218.984C110.827,223.03 103.737,223.351 100.562,219.003C99.197,217.133 99.347,216.415 98.992,214.214C98.938,195.744 98.894,177.279 98.857,158.816L98.843,151.744L98.839,149.167C93.147,145.045 87.254,141.01 80.927,138.361C80.166,174.634 80.786,210.865 81.06,247.139C81.06,247.139 81.658,249.704 82.17,251.459C89.977,278.232 105.082,303.593 129.29,318.218C144.741,327.55 163.299,330.826 181.361,329.685C205.481,328.159 229.776,319.085 246.096,300.85C248.452,298.218 250.66,295.436 252.704,292.533L220.825,260.644L201.412,280.052C201.412,280.052 198.222,282.76 194.805,282.519C190.973,282.25 187.551,279.077 186.992,275.276C186.914,274.743 186.923,274.606 186.902,274.068L186.641,195.08C186.776,190.934 189.877,187.209 193.956,186.635C194.493,186.559 194.63,186.569 195.171,186.552L269.271,186.819ZM203.834,253.591L214.817,242.612C214.817,242.612 217.806,240.123 220.828,240.124C222.649,240.124 224.462,240.727 225.921,241.82C226.353,242.143 226.443,242.247 226.838,242.614L276.674,292.465L292.53,276.614L242.694,226.763C241.423,225.398 241.327,225.06 240.973,224.283C239.545,221.156 240.319,217.294 242.695,214.742L253.678,203.763L203.669,203.582C203.724,220.252 203.779,236.922 203.834,253.591ZM260.726,220.755L269.246,229.278C269.297,223.583 269.299,217.888 269.291,212.192L260.726,220.755Z" style="fill-rule:nonzero;"/>
</svg>
