<?xml version="1.0" encoding="UTF-8" standalone="no"?>
<!DOCTYPE svg PUBLIC "-//W3C//DTD SVG 1.1//EN" "http://www.w3.org/Graphics/SVG/1.1/DTD/svg11.dtd">
<svg width="100%" height="100%" viewBox="0 0 800 800" version="1.1" xmlns="http://www.w3.org/2000/svg" xmlns:xlink="http://www.w3.org/1999/xlink" xml:space="preserve" xmlns:serif="http://www.serif.com/" style="fill-rule:evenodd;clip-rule:evenodd;stroke-linejoin:round;stroke-miterlimit:1.41421;">
    <path d="M400,0C620.766,0 800,179.234 800,400C800,620.766 620.766,800 400,800C179.234,800 0,620.766 0,400C0,179.234 179.234,0 400,0ZM577.383,585.918L425.234,182.91L268.262,182.91C260.84,182.91 255.521,184.333 252.305,187.178C249.089,190.023 247.48,193.796 247.48,198.496C247.48,203.197 249.089,206.969 252.305,209.814C255.521,212.66 260.84,214.082 268.262,214.082L360.293,214.082L222.617,585.918L198.496,585.918C191.074,585.918 185.755,587.34 182.539,590.186C179.323,593.031 177.715,596.803 177.715,601.504C177.715,605.957 179.323,609.668 182.539,612.637C185.755,615.605 191.074,617.09 198.496,617.09L315.02,617.09C322.442,617.09 327.761,615.605 330.977,612.637C334.193,609.668 335.801,605.957 335.801,601.504C335.801,596.803 334.193,593.031 330.977,590.186C327.761,587.341 322.442,585.918 315.02,585.918L255.273,585.918L297.207,471.992L502.051,471.992L544.727,585.918L485.352,585.918C477.682,585.918 472.24,587.34 469.023,590.186C465.807,593.031 464.199,596.803 464.199,601.504C464.199,605.957 465.807,609.668 469.023,612.637C472.24,615.605 477.682,617.09 485.352,617.09L601.504,617.09C608.926,617.09 614.245,615.605 617.461,612.637C620.677,609.668 622.285,605.957 622.285,601.504C622.285,596.803 620.677,593.031 617.461,590.186C614.245,587.341 608.926,585.918 601.504,585.918L577.383,585.918ZM404.082,214.082L490.176,440.82L309.082,440.82L392.578,214.082L404.082,214.082Z"/>
</svg>
