<?xml version="1.0" encoding="UTF-8" standalone="no"?>
<!DOCTYPE svg PUBLIC "-//W3C//DTD SVG 1.1//EN" "http://www.w3.org/Graphics/SVG/1.1/DTD/svg11.dtd">
<svg width="100%" height="100%" viewBox="0 0 350 350" version="1.1" xmlns="http://www.w3.org/2000/svg" xmlns:xlink="http://www.w3.org/1999/xlink" xml:space="preserve" xmlns:serif="http://www.serif.com/" style="fill-rule:evenodd;clip-rule:evenodd;stroke-linejoin:round;stroke-miterlimit:1.41421;">
    <path d="M175,15C263.306,15 335,86.694 335,175C335,263.306 263.306,335 175,335C86.694,335 15,263.306 15,175C15,86.694 86.694,15 175,15ZM174.58,217.347C199.267,217.347 219.309,236.548 219.309,260.197C219.309,283.847 199.267,303.047 174.58,303.047C149.894,303.047 129.851,283.847 129.851,260.197C129.851,236.548 149.894,217.347 174.58,217.347ZM174.58,39.677C211.86,39.455 228.842,70.639 228.842,94.288C228.842,117.938 199.267,201.358 174.58,201.358C149.894,201.358 121.158,117.938 121.158,94.288C121.158,70.639 135.682,39.91 174.58,39.677Z"/>
</svg>
