<?xml version="1.0" encoding="UTF-8" standalone="no"?>
<!DOCTYPE svg PUBLIC "-//W3C//DTD SVG 1.1//EN" "http://www.w3.org/Graphics/SVG/1.1/DTD/svg11.dtd">
<svg width="100%" height="100%" viewBox="0 0 350 350" version="1.1" xmlns="http://www.w3.org/2000/svg" xmlns:xlink="http://www.w3.org/1999/xlink" xml:space="preserve" xmlns:serif="http://www.serif.com/" style="fill-rule:evenodd;clip-rule:evenodd;stroke-linejoin:round;stroke-miterlimit:1.41421;">
    <path d="M252.726,292.068L175.094,334.723C172.844,335.496 172.227,336.031 169.78,335.577C168.885,335.411 168.073,334.944 167.219,334.627L38.103,259.554C36.26,257.999 35.465,257.741 34.603,255.366C34.288,254.498 34.284,253.547 34.124,252.637L34.124,92.689C34.416,90.523 35.036,88.409 36.572,86.928C37.085,86.434 37.72,86.085 38.295,85.664L167.411,15.268C169.843,14.417 169.866,14.412 172.443,14.382C173.263,14.648 174.084,14.914 174.905,15.18L311.542,85.576L313.328,86.832C314.54,88.316 315.047,88.627 315.58,90.525C315.777,91.226 315.779,91.968 315.878,92.689L315.878,252.637C315.588,254.796 314.972,256.904 313.444,258.384C312.934,258.878 312.302,259.228 311.73,259.649L303.452,264.198L310.59,271.336C310.59,271.336 313.136,274.448 312.913,277.564C312.777,279.461 311.9,281.242 310.59,282.65L282.605,310.634C279.761,313.283 275.244,313.695 272.154,311.382C271.748,311.077 271.663,310.98 271.292,310.634L252.726,292.068ZM291.668,252.414L299.876,247.904L299.876,106.14L179.24,167.602L179.24,314.186L240.942,280.285L220.966,260.308L200.637,280.637C200.637,280.637 195.97,284.049 191.919,282.371C189.381,281.32 187.471,278.876 187.067,276.154C186.99,275.636 187,275.503 186.98,274.98L186.98,195.025C187.119,191.14 190.021,187.655 193.842,187.106C194.345,187.034 194.473,187.043 194.98,187.025L274.936,187.025C275.132,187.032 275.328,187.039 275.525,187.046C277.436,187.258 277.94,187.532 278.879,188.064C282.784,190.276 284.109,196.086 281.362,199.79C281.05,200.211 280.949,200.298 280.593,200.681L260.264,221.01L291.668,252.414ZM163.242,167.472C125.589,147.151 88.185,126.921 50.126,106.457L50.126,248.034L163.242,313.804L163.242,167.472ZM255.622,203.025L202.98,203.025L202.98,255.667L215.309,243.338C218.154,240.689 222.67,240.277 225.76,242.59C226.167,242.895 226.252,242.992 226.623,243.338L276.949,293.664L293.619,276.993L243.294,226.667C242.098,225.383 242.007,225.064 241.673,224.334C240.329,221.391 241.057,217.755 243.294,215.353L255.622,203.025ZM290.712,92.854C230.803,62.106 171.352,32.681 171.352,32.681C171.352,32.681 112.726,63.439 58.611,92.823C90.62,109.967 122.727,127.434 154.798,144.738L171.347,153.668L290.712,92.854Z" style="fill-rule:nonzero;"/>
</svg>
