<?xml version="1.0" encoding="UTF-8" standalone="no"?>
<!DOCTYPE svg PUBLIC "-//W3C//DTD SVG 1.1//EN" "http://www.w3.org/Graphics/SVG/1.1/DTD/svg11.dtd">
<svg width="100%" height="100%" viewBox="0 0 350 350" version="1.1" xmlns="http://www.w3.org/2000/svg" xmlns:xlink="http://www.w3.org/1999/xlink" xml:space="preserve" xmlns:serif="http://www.serif.com/" style="fill-rule:evenodd;clip-rule:evenodd;stroke-linejoin:round;stroke-miterlimit:1.41421;">
    <path d="M205.214,341.387L146.076,341.387C142.581,340.833 139.314,338.978 138.248,335.699C137.983,334.883 137.981,334.004 137.846,333.156L137.846,248.188L66.789,219.767L64.682,218.534C63.235,216.963 62.624,216.651 61.975,214.538C61.737,213.76 61.735,212.929 61.615,212.125L61.615,41.467C61.966,39.054 62.722,36.709 64.535,35.178C65.14,34.668 65.881,34.341 66.553,33.923L122.977,9.301C124.738,8.858 126.561,8.426 128.299,8.869C130.974,9.549 133.187,11.643 134.055,14.175C134.347,15.028 134.351,15.954 134.499,16.845L134.499,149.302L175.088,166.128L218.356,149.184L218.356,16.845L218.809,14.149C219.246,13.35 219.556,12.467 220.12,11.751C221.846,9.563 224.695,8.39 227.386,8.653C228.293,8.741 229.145,9.128 230.024,9.367C247.88,17.573 265.736,25.781 283.592,33.989C285.606,35.289 287.397,36.915 288.053,39.152C288.273,39.9 288.275,40.696 288.385,41.467L288.385,212.125C288.017,214.595 287.225,216.985 285.347,218.512C284.719,219.022 283.953,219.337 283.256,219.748L266.326,226.637L307.771,268.093C307.771,268.093 310.475,271.4 310.238,274.71C310.093,276.727 309.161,278.619 307.769,280.114L279.89,307.984C276.862,310.803 272.069,311.235 268.786,308.777C268.354,308.453 268.264,308.35 267.87,307.983L218.033,258.132L213.444,262.72L213.444,333.156L213.042,335.699C211.835,338.067 210.199,340.191 207.757,340.984C206.941,341.248 206.062,341.252 205.214,341.387ZM271.925,184.353L271.925,46.742L234.816,29.687L234.816,154.8L234.45,157.228C233.517,159.164 233.454,159.853 231.714,161.238C231.075,161.747 230.297,162.056 229.588,162.465L178.001,182.665C176.214,183.113 175.742,183.413 173.871,183.154C173.178,183.058 172.523,182.788 171.848,182.604L123.117,162.403C120.987,161.126 119.091,159.493 118.393,157.189C118.16,156.419 118.157,155.596 118.039,154.8L118.039,29.416C104.717,35.229 91.397,41.043 78.075,46.855L78.075,206.552L149.132,234.973C151.3,236.241 153.231,237.876 153.946,240.203C154.184,240.98 154.186,241.812 154.306,242.616L154.306,324.925L196.984,324.925L196.984,278.651C195.734,279.367 193.909,280.14 192.014,280.007C188.182,279.737 184.76,276.565 184.201,272.764C184.123,272.23 184.132,272.094 184.111,271.556L183.85,192.567C183.985,188.422 187.086,184.696 191.165,184.122C191.702,184.046 191.839,184.057 192.38,184.039C218.71,184.134 245.039,184.229 271.369,184.324C271.566,184.332 271.751,184.341 271.925,184.353ZM201.043,251.079L212.026,240.1C212.026,240.1 215.015,237.611 218.037,237.611C219.858,237.611 221.671,238.215 223.13,239.307C223.562,239.631 223.652,239.734 224.047,240.102L273.883,289.952L289.739,274.101L239.903,224.25C238.632,222.885 238.536,222.547 238.181,221.771C236.754,218.644 237.528,214.781 239.904,212.229L250.887,201.25L200.878,201.07C200.933,217.74 200.988,234.409 201.043,251.079ZM271.925,204.256L266.858,209.322L271.925,206.588L271.925,204.256Z" style="fill-rule:nonzero;"/>
</svg>
