<?xml version="1.0" encoding="UTF-8" standalone="no"?>
<!DOCTYPE svg PUBLIC "-//W3C//DTD SVG 1.1//EN" "http://www.w3.org/Graphics/SVG/1.1/DTD/svg11.dtd">
<svg width="100%" height="100%" viewBox="0 0 350 350" version="1.1" xmlns="http://www.w3.org/2000/svg" xmlns:xlink="http://www.w3.org/1999/xlink" xml:space="preserve" xmlns:serif="http://www.serif.com/" style="fill-rule:evenodd;clip-rule:evenodd;stroke-linejoin:round;stroke-miterlimit:1.41421;">
    <g transform="matrix(1.37169,0,0,1.37186,-51.2193,-87.5457)">
        <path d="M244.087,88.591C245.555,89.539 246.861,90.724 247.339,92.355C247.499,92.9 247.501,93.48 247.581,94.042L247.581,218.441C247.313,220.242 246.735,221.984 245.366,223.097C244.908,223.469 244.35,223.698 243.842,223.998L192.947,244.703L192.947,306.665L192.654,308.519C191.774,310.245 190.581,311.793 188.801,312.371C188.206,312.564 187.565,312.567 186.947,312.665L143.834,312.665C141.286,312.261 138.904,310.909 138.127,308.519C137.934,307.924 137.932,307.283 137.834,306.665L137.834,244.729L86.031,224.012L84.495,223.113C83.44,221.968 82.995,221.74 82.522,220.2C82.348,219.633 82.347,219.027 82.259,218.441L82.259,94.042C82.515,92.283 83.066,90.574 84.388,89.458C84.829,89.086 85.369,88.848 85.859,88.543L126.994,70.595C128.278,70.272 129.607,69.957 130.874,70.28C132.824,70.776 134.437,72.302 135.07,74.148C135.283,74.77 135.286,75.445 135.394,76.094L135.394,172.647L164.984,184.912L196.528,172.561L196.528,76.094L196.858,74.129C197.177,73.547 197.403,72.903 197.814,72.381C199.072,70.786 201.149,69.931 203.111,70.123C203.772,70.187 204.393,70.469 205.034,70.643C218.052,76.625 231.069,82.608 244.087,88.591ZM94.259,97.97L94.259,214.379L146.062,235.096C147.642,236.02 149.05,237.212 149.571,238.908C149.745,239.475 149.746,240.081 149.834,240.667L149.834,300.665L180.947,300.665L180.947,240.667C181.215,238.866 181.793,237.124 183.162,236.011C183.62,235.639 184.178,235.41 184.686,235.11L235.581,214.405L235.581,97.887L208.528,85.455L208.528,176.655L208.261,178.425C207.581,179.836 207.535,180.338 206.266,181.348C205.8,181.719 205.233,181.944 204.716,182.242L167.108,196.967C165.805,197.293 165.461,197.512 164.097,197.323C163.592,197.253 163.114,197.056 162.622,196.922L127.096,182.197C125.543,181.266 124.161,180.076 123.652,178.396C123.482,177.835 123.48,177.235 123.394,176.655L123.394,85.258C113.682,89.495 103.971,93.733 94.259,97.97Z" style="fill-rule:nonzero;"/>
    </g>
</svg>
