<?xml version="1.0" encoding="UTF-8" standalone="no"?>
<!DOCTYPE svg PUBLIC "-//W3C//DTD SVG 1.1//EN" "http://www.w3.org/Graphics/SVG/1.1/DTD/svg11.dtd">
<svg width="100%" height="100%" viewBox="0 0 350 350" version="1.1" xmlns="http://www.w3.org/2000/svg" xmlns:xlink="http://www.w3.org/1999/xlink" xml:space="preserve" xmlns:serif="http://www.serif.com/" style="fill-rule:evenodd;clip-rule:evenodd;stroke-linejoin:round;stroke-miterlimit:1.41421;">
    <g transform="matrix(1.48434,0,0,1.48434,-84.1059,-84.3778)">
        <path d="M109.043,138.306C114.082,138.507 118.725,141.274 123.229,144.068C123.21,127.641 122.962,111.204 123.321,94.778C123.494,86.828 129.331,79.744 137.344,77.313C142.493,75.752 148.157,75.639 153.21,77.429C153.21,77.429 153.421,66.934 161.336,62.329C166.065,59.577 171.956,58.991 176.922,59.447C184.127,60.109 190.644,65.032 193.5,71.715C193.5,71.715 199.892,69.658 203.909,69.946C207.727,70.22 211.408,71.852 214.239,74.54C218.024,78.135 220.292,83.172 221.212,88.135L221.305,89.145L221.305,100.473C222.119,100.215 222.124,100.233 222.458,100.149C228.096,98.733 234.193,99.097 238.978,102.65C244.073,106.433 247.113,112.553 248.6,118.367L248.776,119.707C249.02,153.462 249.647,187.087 248.885,220.811C248.271,248.02 231.272,274.275 205.043,284.526C178.533,294.888 147.066,291.58 125.948,271.295C113.927,259.748 105.736,244.511 101.246,228.586C100.943,227.513 100.659,226.435 100.416,225.347L100.278,224.164C100.08,198.874 99.528,173.411 100.223,148.21C100.357,143.376 102.871,138.363 108.67,138.3C108.857,138.302 108.857,138.302 109.043,138.306ZM174.259,70.351C170.007,70.401 165.137,71.218 164.36,75.771C164.048,77.601 164.157,79.564 164.123,81.488C164.078,84.049 164.056,86.612 164.038,89.174L164.354,174.98C164.125,176.464 164.229,176.947 163.318,178.212C161.366,180.925 156.567,181.164 154.429,178.266C153.503,177.011 153.601,176.527 153.354,175.046C153.119,146.929 152.876,118.686 153.03,90.438C152.604,89.8 152.068,89.254 151.458,88.808C148.933,86.96 145.423,86.897 142.349,87.418C138.588,88.055 134.437,90.334 134.324,94.773C133.864,112.792 134.211,131.093 134.236,149.303L134.244,153.939L134.353,154.652L134.353,201.145C134.118,202.629 134.221,203.112 133.304,204.375C131.326,207.101 126.55,207.317 124.411,204.388C123.491,203.128 123.592,202.644 123.353,201.161C123.317,188.718 123.287,176.278 123.262,163.84L123.253,159.075L123.25,157.339C119.415,154.562 115.445,151.844 111.183,150.059C110.67,174.496 111.088,198.905 111.272,223.343C111.272,223.343 111.675,225.071 112.02,226.253C117.28,244.29 127.456,261.376 143.765,271.229C154.174,277.516 166.677,279.723 178.845,278.954C195.095,277.926 211.462,271.813 222.457,259.528C231.576,249.34 237.407,235.846 237.838,222.437C238.167,212.184 238.073,201.941 238.075,191.684C238.078,168.048 237.948,144.424 237.784,120.807C237.784,120.807 236.081,115.45 233.937,112.931C231.362,109.904 225.893,109.372 222.343,112.069C221.718,112.543 221.305,113.428 221.305,113.428C221.62,120.414 221.41,127.517 221.406,134.591C221.398,147.237 221.359,159.882 221.314,172.528L221.305,175.021C221.065,176.503 221.165,176.987 220.245,178.246C218.257,180.965 213.482,181.165 211.353,178.229C210.437,176.967 210.54,176.484 210.305,175L210.305,113.718C210.305,113.718 210.286,113.353 210.305,112.857L210.305,89.694C209.271,85.117 206.623,80.54 201.465,80.943C198.365,81.185 195.121,83.083 194.485,86.52L194.482,88.83C194.896,93.094 194.761,97.473 194.79,101.83C194.952,125.905 194.708,150.037 194.49,174.147L194.482,175.051C194.234,176.53 194.332,177.013 193.407,178.266C191.378,181.016 186.584,181.067 184.526,178.224C183.614,176.963 183.716,176.481 183.482,175L183.482,89.487C183.482,89.487 183.291,87.697 183.478,85.831L183.482,76.278C182.171,72.847 178.786,70.384 174.707,70.35C174.558,70.35 174.408,70.35 174.259,70.351Z" style="fill-rule:nonzero;"/>
    </g>
</svg>
