<?xml version="1.0" encoding="UTF-8" standalone="no"?>
<!DOCTYPE svg PUBLIC "-//W3C//DTD SVG 1.1//EN" "http://www.w3.org/Graphics/SVG/1.1/DTD/svg11.dtd">
<svg width="100%" height="100%" viewBox="0 0 350 350" version="1.1" xmlns="http://www.w3.org/2000/svg" xmlns:xlink="http://www.w3.org/1999/xlink" xml:space="preserve" xmlns:serif="http://www.serif.com/" style="fill-rule:evenodd;clip-rule:evenodd;stroke-linejoin:round;stroke-miterlimit:1.41421;">
    <g transform="matrix(1.23191,0,0,1.17392,-26.2023,-20.2497)">
        <path d="M175.897,32.381C167.536,31.517 159.115,31.517 150.754,32.381L146.977,53.215C138.973,54.489 131.13,56.695 123.592,59.791L110.394,43.73C102.741,47.368 95.448,51.787 88.62,56.922L95.275,76.947C88.951,82.25 83.209,88.275 78.156,94.912L59.073,87.928C54.18,95.094 49.969,102.747 46.502,110.777L61.807,124.628C58.857,132.538 56.755,140.769 55.541,149.168L35.687,153.132C34.864,161.905 34.864,170.743 35.687,179.516L55.541,183.481C56.755,191.879 58.857,200.11 61.807,208.02L46.502,221.871C49.969,229.901 54.18,237.554 59.073,244.721L78.156,237.737C83.209,244.373 88.951,250.398 95.275,255.701L88.62,275.726C95.448,280.861 102.741,285.28 110.394,288.918L123.592,272.858C131.13,275.954 138.973,278.159 146.977,279.433L150.754,300.267C159.115,301.131 167.536,301.131 175.897,300.267L179.675,279.433C187.678,278.159 195.521,275.954 203.059,272.858L216.258,288.918C223.91,285.28 231.203,280.861 238.032,275.726L231.377,255.701C237.701,250.398 243.442,244.373 248.495,237.737L267.578,244.721C272.471,237.554 276.682,229.901 280.149,221.871L264.844,208.02C267.795,200.11 269.896,191.879 271.11,183.481L290.964,179.516C291.787,170.743 291.787,161.905 290.964,153.132L271.11,149.168C269.896,140.769 267.795,132.538 264.844,124.628L280.149,110.777C276.682,102.747 272.471,95.094 267.578,87.928L248.495,94.912C243.442,88.275 237.701,82.25 231.377,76.947L238.032,56.922C231.203,51.787 223.91,47.368 216.258,43.73L203.059,59.791C195.521,56.695 187.678,54.489 179.675,53.215L175.897,32.381ZM163.326,139.406C177.483,139.406 188.977,151.468 188.977,166.324C188.977,181.181 177.483,193.242 163.326,193.242C149.168,193.242 137.675,181.181 137.675,166.324C137.675,151.468 149.168,139.406 163.326,139.406Z"/>
    </g>
</svg>
